# xmcd CD database file
#
# Track frame offsets:
#	150
#	19425
#	36612
#	51852
#	66833
#	80990
#	96425
#	111627
#	124360
#	136947
#	153962
#	167225
#	186032
#	201005
#	216263
#	229367
#	246407
#	257515
#	274960
#	285908
#	305190
#
# Disc length: 4332 seconds
#
# Revision: 0
# Processed by: cddbd v1.5.2PL0 Copyright (c) Steve Scherf et al.
# Submitted via: CDex 1.70beta2
#
DISCID=5310ea15
DTITLE=ChartBreakers - ChartBreakers CGC-512
DYEAR=1900
DGENRE=Country
TTITLE0=Alabama - Once Upon A Lifetime
TTITLE1=Garth Brooks - We Shall BeFree
TTITLE2=Lionel Cartwright - I Watched It All (On My Radio)
TTITLE3=Rosanne Cash - Seven Year Ache
TTITLE4=Mark Chesnutt - Brother Jukebox
TTITLE5=Confederate Railroad - Queen Of Memphis
TTITLE6=Billy Dean - Somewhere In My Broken Heart
TTITLE7=Forrester Sisters - Mama's Never Seen Those Eyes
TTITLE8=Judds - Rockin' With The Rhythm Of The Rain
TTITLE9=Judds - Turn It Loose
TTITLE10=Mel McDaniel - Baby's Got Her Blue Jeans On
TTITLE11=Ronnie Milsap - All Is Fair In Love And War
TTITLE12=Lorrie Morgan - Out Of Your Shoes
TTITLE13=Michael Martin Murphy - A Long Line Of Love
TTITLE14=Michael Martin Murphy - What's Forever For
TTITLE15=Reba McEntire - 'Til Love Comes Again
TTITLE16=Reba McEntire - Can't Even Get The Blues
TTITLE17=Paul Overstreet - Sowin' Love
TTITLE18=Remingtons - A Long Time Ago
TTITLE19=Restless Heart - I'll Still Be Loving You
TTITLE20=Dan Seals - You Still Move Me
EXTD=YEAR: 1900
EXTT0=
EXTT1=
EXTT2=
EXTT3=
EXTT4=
EXTT5=
EXTT6=
EXTT7=
EXTT8=
EXTT9=
EXTT10=
EXTT11=
EXTT12=
EXTT13=
EXTT14=
EXTT15=
EXTT16=
EXTT17=
EXTT18=
EXTT19=
EXTT20=
PLAYORDER=
